<svg xmlns="http://www.w3.org/2000/svg" xmlns:xlink="http://www.w3.org/1999/xlink" viewBox="0 0 516 516"><defs><style>.cls-1{isolation:isolate;}.cls-2{fill:#fe3a44;}.cls-3{fill:#800707;}.cls-3,.cls-38{opacity:0.3;}.cls-4{fill:url(#linear-gradient);}.cls-5{fill:url(#linear-gradient-2);}.cls-6{fill:#a54d5e;opacity:0.25;}.cls-6,.cls-8{mix-blend-mode:multiply;}.cls-7{fill:url(#linear-gradient-3);}.cls-8{fill:#b00f1d;}.cls-14,.cls-27,.cls-28,.cls-8{opacity:0.5;}.cls-9{fill:url(#linear-gradient-4);}.cls-10,.cls-12,.cls-38{fill:#87a0bd;}.cls-10{opacity:0.2;}.cls-11{fill:url(#linear-gradient-5);}.cls-13{fill:#2e3d54;}.cls-14,.cls-15{fill:#132236;}.cls-16{fill:#819fc2;}.cls-17{fill:url(#linear-gradient-6);}.cls-18{fill:#a9bfd9;}.cls-19{fill:url(#linear-gradient-7);}.cls-20{fill:#616b8e;}.cls-21{fill:url(#linear-gradient-8);}.cls-22{fill:#263245;}.cls-23{fill:url(#linear-gradient-9);}.cls-24{fill:#bf1b23;}.cls-25{fill:#e1171b;}.cls-25,.cls-26{opacity:0.7;}.cls-26{fill:#f5222c;}.cls-27{fill:#f74346;}.cls-28{fill:#fff;}.cls-29{fill:#f79421;}.cls-30{fill:#d36528;}.cls-31{fill:url(#linear-gradient-10);}.cls-32{fill:#ff554d;}.cls-33{fill:#ff8c78;}.cls-34{fill:#ffc2a8;}.cls-35{fill:#f85344;}.cls-36{fill:url(#linear-gradient-11);}.cls-37{fill:url(#linear-gradient-12);}</style><linearGradient id="linear-gradient" x1="164.49" y1="277.63" x2="438.15" y2="39.49" gradientUnits="userSpaceOnUse"><stop offset="0" stop-color="#fff8e6"/><stop offset="1" stop-color="#edd9d1"/></linearGradient><linearGradient id="linear-gradient-2" x1="233.34" y1="218.33" x2="237.6" y2="159.73" gradientUnits="userSpaceOnUse"><stop offset="0" stop-color="#fff8e6"/><stop offset="1" stop-color="#f5ecd5"/></linearGradient><linearGradient id="linear-gradient-3" x1="236.55" y1="141.45" x2="290.58" y2="538.84" gradientUnits="userSpaceOnUse"><stop offset="0" stop-color="#ebcfc4"/><stop offset="0.55" stop-color="#eed7ce"/><stop offset="1" stop-color="#f2e1da"/></linearGradient><linearGradient id="linear-gradient-4" x1="333.11" y1="397.77" x2="319.47" y2="468.66" gradientTransform="translate(-131.34 -354.13) rotate(-7.34)" gradientUnits="userSpaceOnUse"><stop offset="0" stop-color="#616b8e"/><stop offset="0.65" stop-color="#404d68"/><stop offset="1" stop-color="#2e3d54"/></linearGradient><linearGradient id="linear-gradient-5" x1="205.51" y1="449.39" x2="165.14" y2="388.83" gradientTransform="matrix(0.84, 0.54, -0.54, 0.84, 293.86, -391.29)" xlink:href="#linear-gradient-4"/><linearGradient id="linear-gradient-6" x1="114.72" y1="86.84" x2="151.27" y2="155.7" gradientTransform="matrix(1, 0, 0, 1, 0, 0)" xlink:href="#linear-gradient-4"/><linearGradient id="linear-gradient-7" x1="156.83" y1="75.12" x2="118.14" y2="96.84" gradientUnits="userSpaceOnUse"><stop offset="0" stop-color="#506082"/><stop offset="0.41" stop-color="#404d68"/><stop offset="1" stop-color="#2e3d54"/></linearGradient><linearGradient id="linear-gradient-8" x1="124.77" y1="89.72" x2="153.79" y2="78.86" gradientUnits="userSpaceOnUse"><stop offset="0" stop-color="#404d68"/><stop offset="1" stop-color="#616b8e"/></linearGradient><linearGradient id="linear-gradient-9" x1="118.26" y1="-6.45" x2="97.68" y2="45.78" gradientTransform="translate(263.52 -21.09) rotate(18.98)" gradientUnits="userSpaceOnUse"><stop offset="0" stop-color="#63b700"/><stop offset="1" stop-color="#639300"/></linearGradient><linearGradient id="linear-gradient-10" x1="253.5" y1="90.21" x2="385.23" y2="90.21" gradientTransform="translate(-110.6 39.78) rotate(-0.76)" gradientUnits="userSpaceOnUse"><stop offset="0" stop-color="#e1171b"/><stop offset="1" stop-color="#b82423"/></linearGradient><linearGradient id="linear-gradient-11" x1="298.2" y1="66.35" x2="253.64" y2="17.06" gradientTransform="translate(-110.6 39.78) rotate(-0.76)" gradientUnits="userSpaceOnUse"><stop offset="0" stop-color="#598f02"/><stop offset="1" stop-color="#74ba03"/></linearGradient><linearGradient id="linear-gradient-12" x1="179.34" y1="100.25" x2="239.73" y2="175.87" gradientTransform="translate(211.42 -47.71) rotate(17.2)" xlink:href="#linear-gradient-4"/></defs><title>Artboard 2</title><g class="cls-1"><g id="Layer_1" data-name="Layer 1"><path class="cls-2" d="M451.45,210.22,45.84,216.89c-1.61.54-15.1,142.61,7.39,292,0,0,238.47,11,416,.86,0,0,17.72-137.66,17.86-276C487.05,228.77,472.29,211.07,451.45,210.22Z"/><path class="cls-3" d="M486.87,255.7q.15-11,.17-22c0-5-14.75-22.66-35.59-23.51L45.84,216.89c-.65.22.35,16.85-1,53.93C150.74,229.47,445.2,246.87,486.87,255.7Z"/><path class="cls-3" d="M482.5,364.44c.74-11.61,1.42-23.62,2-35.93.31-6.42-177-11.69-221.64-10.94-42.22.71-84.46,2.21-126.66,4-34.07,1.48-64.38,3.45-95.86,9.66.06,16.22.41,33.67,1.18,52C205.17,342.06,431.07,356.18,482.5,364.44Z"/><path class="cls-3" d="M473,476.38c1-9.34,2.11-20.39,3.28-32.83.75-8-308.57-4.84-352.47-5.92-26.31-.64-52.64-1.43-78.95-1.2,1.53,18.29,3.52,37.06,6.06,56C192.19,469.17,369.05,469.78,473,476.38Z"/><path class="cls-4" d="M34.52,208.94s30.8-47.28,85-97.82C167.09,66.75,228.57,40,235,40s189.24,102.64,251.79,163C486.77,203.06,210.93,210,34.52,208.94Z"/><path class="cls-5" d="M34.52,208.94s47.53-45.07,90.39-83.16c48.62-43.22,80.44-36.73,86.86-36.73s171.61,65.18,222.1,115.24C345.12,206.23,163.32,209.72,34.52,208.94Z"/><path class="cls-6" d="M99.42,140.32c0,15.74,41.13,31.71,72.45,31.71,15.47,0,13.75-6.32,24-11.38a14.1,14.1,0,0,0-.13,1.84c0,15.75,25.38,28.51,56.7,28.51s56.7-12.76,56.7-28.51c0-.32,0-.64-.05-1a92.3,92.3,0,0,0,26-5.59c.46,15.55,16,29.32,54.93,29.32,22.88,0,44.33-8.05,53.29-17.86-17.81-13.14-37.91-26.83-58.44-40.16a93.49,93.49,0,0,0-27.65,5.67c-.45-15.54-25.64-28.08-56.67-28.08-31.32,0-56.71,12.76-56.71,28.51,0,.32,0,.64,0,1-12.07.92-22.9,3.75-31.22,7.86a14.1,14.1,0,0,0,.13-1.84c0-15.75-25.38-28.51-56.7-28.51S99.42,124.57,99.42,140.32Z"/><path class="cls-7" d="M475.26,454.07q.83-8.34,1.66-17.65c-84,1.62-255.69-4.91-346.5-23.95-41.28-8.65-58.61-22.53-56.14-34.76,1.6-7.89,21.16-18.84,45.44-23.24C203.62,339.27,411,339.58,484,339.91q.62-11.52,1.14-23.39c-68,1.91-262.88,1.35-358-15-48.66-8.35-64.76-22.65-64.76-34.36,0-13,19-22.41,51.62-26.89C219,225.85,443.65,232.59,487,233.73c0-10.23-.07-20.48-.27-30.67L34.52,208.94c-1.61.54-16.62,140.72,10.67,299,0,0,15.87,1.23,29.69,1.76-1.18-19.58,27.23-36.3,71.3-43.19C229,453.58,414.8,454.71,475.26,454.07Z"/><path id="_Path_" data-name="&lt;Path&gt;" class="cls-8" d="M153.64,285.58c-5.55-.89-6.93,7.72-1.38,8.61S159.19,286.47,153.64,285.58Z"/><path id="_Path_2" data-name="&lt;Path&gt;" class="cls-8" d="M179,277a7.39,7.39,0,0,0-2.68-4.95,7.72,7.72,0,0,0-12.6,6.92,7.42,7.42,0,0,0,2.66,4.9C171.4,288,179.69,283.31,179,277Z"/><path id="_Path_3" data-name="&lt;Path&gt;" class="cls-8" d="M129.16,379.87c-6.29-1-7.86,8.75-1.56,9.76S135.46,380.88,129.16,379.87Z"/><path id="_Path_4" data-name="&lt;Path&gt;" class="cls-8" d="M416.68,494.52a7.57,7.57,0,0,0-7.78-6.43,6.89,6.89,0,0,0-6.33,7.91,7,7,0,0,0,7.91,6.33C415.57,502.11,417.37,498.19,416.68,494.52Z"/><path id="_Path_5" data-name="&lt;Path&gt;" class="cls-8" d="M440.28,491a5.07,5.07,0,0,0-10.06-.4c-.68,4.23,4.34,6.47,7.74,4.59A4.24,4.24,0,0,0,440.28,491Z"/><path id="_Path_6" data-name="&lt;Path&gt;" class="cls-8" d="M264.61,263c-1.78-3.66-6.68-5.66-10.34-3a6.79,6.79,0,0,0-2.72,4.41,7.13,7.13,0,0,0,6.26,8.21,6.38,6.38,0,0,0,3.43-.37,7.36,7.36,0,0,0,3.91-4.94A6.65,6.65,0,0,0,264.61,263Z"/><path id="_Path_7" data-name="&lt;Path&gt;" class="cls-8" d="M166.73,485.1c-5.56-.89-6.94,7.73-1.38,8.62S172.29,486,166.73,485.1Z"/><path id="_Path_8" data-name="&lt;Path&gt;" class="cls-8" d="M428.56,386.32c-.44-2.63-4.41-4.66-6.59-2a3.66,3.66,0,0,0,3.23,6,3.65,3.65,0,0,0,1.74-.67A3.33,3.33,0,0,0,428.56,386.32Z"/><path id="_Path_9" data-name="&lt;Path&gt;" class="cls-8" d="M265.27,394.09c-.45-2.63-4.41-4.66-6.59-2a3.66,3.66,0,0,0,3.23,6,3.75,3.75,0,0,0,1.74-.67A3.34,3.34,0,0,0,265.27,394.09Z"/><path id="_Path_10" data-name="&lt;Path&gt;" class="cls-8" d="M221.15,396.87c-.44-2.63-4.41-4.65-6.58-2a3.68,3.68,0,0,0,.5,5.14,3.67,3.67,0,0,0,4.47.14A3.31,3.31,0,0,0,221.15,396.87Z"/><path id="_Path_11" data-name="&lt;Path&gt;" class="cls-8" d="M469.29,270c-.45-2.63-4.41-4.66-6.59-2a3.66,3.66,0,0,0,3.23,6,3.55,3.55,0,0,0,1.74-.67A3.34,3.34,0,0,0,469.29,270Z"/><path id="_Path_12" data-name="&lt;Path&gt;" class="cls-8" d="M121.08,270.32c-.45-2.63-4.41-4.66-6.59-2a3.66,3.66,0,0,0,3.23,6,3.75,3.75,0,0,0,1.74-.67A3.34,3.34,0,0,0,121.08,270.32Z"/><path id="_Path_13" data-name="&lt;Path&gt;" class="cls-8" d="M455.41,396.21c1.44-5.83-4.16-10.59-10-8.6a7.78,7.78,0,0,0-4.35,4.1,7.38,7.38,0,0,0,.57,7.18c3.53,4.72,11,4.2,13.37-1.36A8.52,8.52,0,0,0,455.41,396.21Z"/><path id="_Path_14" data-name="&lt;Path&gt;" class="cls-8" d="M243.36,382.62c1.44-5.84-4.16-10.59-10-8.61a7.88,7.88,0,0,0-4.36,4.11,7.41,7.41,0,0,0,.58,7.18c3.53,4.72,11,4.2,13.37-1.36A10.21,10.21,0,0,0,243.36,382.62Z"/><path id="_Path_15" data-name="&lt;Path&gt;" class="cls-8" d="M202.29,501.58c1.34-5.43-3.87-9.85-9.32-8a7.23,7.23,0,0,0-4.05,3.82,6.89,6.89,0,0,0,.53,6.67c3.28,4.39,10.24,3.91,12.43-1.26A9.33,9.33,0,0,0,202.29,501.58Z"/><path id="_Path_16" data-name="&lt;Path&gt;" class="cls-8" d="M453.06,284.87c1.44-5.83-4.16-10.59-10-8.6a7.78,7.78,0,0,0-4.35,4.1,7.38,7.38,0,0,0,.57,7.18c3.53,4.72,11,4.21,13.37-1.36A8.52,8.52,0,0,0,453.06,284.87Z"/><path class="cls-9" d="M240.59,2.36c-22.92,3.11-39.93,25.81-39.12,49.33.74,21.82,16.76,42.22,38.47,45.14,25.87,3.47,51-19,51.88-46C292.73,22.83,267.23-1.26,240.59,2.36Z"/><path class="cls-10" d="M260.14,11.61c-5.68-7.47-21.55-6.26-31.49-1.63-9.48,4.41-19.15,17.48-16.91,23.55,3.43,9.33,21.46,13.68,34.08,8.17C258.84,36,266.3,19.73,260.14,11.61Z"/><path class="cls-11" d="M235.51,32.58s2.24-11.85-4.92-13.58S219,27,219,27s-12.47-4.07-16.42,6,5.57,17.6,5.57,17.6-5.56,8.64-1.72,13.28c4.65,5.59,13-1.72,13-1.72s4.5,8.64,10.92,5.94S235,55.23,235,55.23,253.75,46.12,235.51,32.58Z"/><path class="cls-12" d="M229.63,31.59c-5.5-1.95-13.27,4.1-14.89,11.24-1.56,6.9,2.43,15.56,8.19,16.32,5.42.72,10.55-5.76,12-11.39C236.48,41.81,234.79,33.43,229.63,31.59Z"/><path class="cls-13" d="M228.1,31.24c-5.5-1.95-13.27,4.1-14.89,11.25-1.56,6.89,2.43,15.55,8.2,16.32,5.41.72,10.54-5.77,12-11.4C235,41.47,233.26,33.08,228.1,31.24Z"/><path class="cls-14" d="M218.79,44.38c1.38-5.59,5.82-10.91,10.2-12.73a6,6,0,0,0-.89-.41c-5.5-1.95-13.27,4.1-14.89,11.25-1.5,6.62,2.13,14.84,7.52,16.17A20.65,20.65,0,0,1,218.79,44.38Z"/><path class="cls-15" d="M228.64,46.25c-.55,1.9-2.08,3.12-3.41,2.74s-2-2.24-1.41-4.13,2.07-3.12,3.4-2.74S229.19,44.36,228.64,46.25Z"/><path class="cls-12" d="M234.52,22.13a6.42,6.42,0,0,0-3.93-3.51c-7.15-1.73-11.76,7.72-11.76,7.72s-12.39-4-16.33,6.06a10.39,10.39,0,0,0-.84,4.57c1.11-3,2.1-13.21,18-8.71C219.66,28.26,226.23,13.84,234.52,22.13Z"/><path class="cls-16" d="M228.69,11.73c-1.94-3,11.47-7.23,12.35-4.28C242,10.7,230.6,14.65,228.69,11.73Z"/><path class="cls-16" d="M248.77,8.78A2.52,2.52,0,0,1,245.4,10a2.53,2.53,0,0,1-.85-3.46,2.53,2.53,0,0,1,3.37-1.17A2.53,2.53,0,0,1,248.77,8.78Z"/><path class="cls-17" d="M85.22,116.22c-.71,11,2.32,24,11,31.49,14.93,12.94,48,15.39,69.36,6.12,16-7,14.35-17.56,14.44-34.57.13-22.46-21.89-42.44-45.9-43.28C111,75.18,86.77,92.05,85.22,116.22Z"/><path class="cls-10" d="M133.12,102.13c-11.67,12.33-15.76-2.17-15.76-2.17l2.54-1.61a5.22,5.22,0,0,1-.38-2.24c.08-1.9-3-6-3.71-7.65a30.42,30.42,0,0,1-1.9-5.16C100,86.55,91.71,97.62,93.08,106.43c1.63,10.57,16.67,14.82,25.26,15.2,17.7.77,29.15-14,30.48-15.74C143.51,106.47,138.11,105,133.12,102.13Z"/><path class="cls-18" d="M91.46,113.55c-3.69-.44,1.94-14.09,4.89-12.81C99.62,102.16,95.1,114,91.46,113.55Z"/><path class="cls-18" d="M102.65,95.43a2.53,2.53,0,1,1-3.36-1.66A2.64,2.64,0,0,1,102.65,95.43Z"/><path class="cls-19" d="M119.83,77.51s1.35-9,8.62-9.74c6.85-.71,12.56,4.14,14.35,9.32,0,0,14.19-3.51,16.37,2.44,2.64,7.18-7.14,11-7.14,11s5.27,9.17.18,11.87c-8.46,4.5-20.05-4.67-20.05-4.67S122.53,108.46,115,104c-5.62-3.29-2.43-13.19-2.43-13.19s-9.85-4-6.9-10.38S119.83,77.51,119.83,77.51Z"/><path class="cls-20" d="M119.49,87.79c-.3-5.06,5.66-11.09,14.64-11.09,5.3,0,11.59,4.5,11.47,9.32s-6.56,8.59-11.3,9.39C127.74,96.52,119.77,92.71,119.49,87.79Z"/><path class="cls-21" d="M118.73,88.61c-.3-4.9,5.64-10.71,14.62-10.69,5.3,0,11.6,4.37,11.49,9S138.3,95.25,133.56,96C127,97.08,119,93.37,118.73,88.61Z"/><path class="cls-22" d="M134.46,81a17,17,0,0,1,9.91,3.64c-1.52-3.7-6.61-6.73-11-6.74-8.75,0-14.6,5.5-14.61,10.31C120.77,84.39,126.55,81,134.46,81Z"/><path class="cls-13" d="M134.63,89.69a1.83,1.83,0,1,1-1.82-1.92A1.88,1.88,0,0,1,134.63,89.69Z"/><g id="_Group_" data-name="&lt;Group&gt;"><path id="_Path_17" data-name="&lt;Path&gt;" class="cls-23" d="M330.14,40.55s-1.24-31.83,4.33-34.5c7.13-3.41,12.86,26.69,12.86,26.69s11.54-12.44,19.28-10.62-4.24,24.49-4.24,24.49,22.73,4.47,23.17,10.48-36.78-.1-36.78-.1Z"/><path id="_Path_18" data-name="&lt;Path&gt;" class="cls-24" d="M346.67,41C321.19,21.53,294,16.46,272,33.58c-20.51,16-43.48,74-6.14,105.2,35,29.22,90.48,2.14,106.8-26.58C384.2,91.83,369.37,58.39,346.67,41Z"/><path id="_Path_19" data-name="&lt;Path&gt;" class="cls-25" d="M310.9,117.74C338,108.39,359.34,78,350.82,48.14A50.23,50.23,0,0,0,349,42.88c-.76-.64-1.53-1.26-2.31-1.85C321.19,21.53,294,16.46,272,33.58c-14.06,10.94-29.27,41.68-25.42,70C262.76,119.38,289.06,125.29,310.9,117.74Z"/><path id="_Path_20" data-name="&lt;Path&gt;" class="cls-26" d="M346.67,41C321.19,21.53,294,16.46,272,33.58c-8.63,6.72-17.68,20.9-22.5,37.4,11.12,16.75,35,28.39,56.72,28.58,24.05.21,51.31-13.49,61.86-33.51A82.28,82.28,0,0,0,346.67,41Z"/><path class="cls-27" d="M309.07,31.35c-16.29-8.87-40.88,4-48.15,23.13-6,15.7-.74,36.81,12.81,43.46C291,106.45,318,89.36,322.65,67.46,325.32,54.91,321.28,38,309.07,31.35Z"/><path id="_Path_21" data-name="&lt;Path&gt;" class="cls-28" d="M286.41,45.31c.73-4.39,20.65-13.71,14.77-14.27-5.5-.51-10.47,2.68-11.72,6.46-1.56,4.7,2.69,10.13,9.08,10.61C304.18,48.53,285.67,49.72,286.41,45.31Z"/><g id="_Group_2" data-name="&lt;Group&gt;"><path id="_Path_22" data-name="&lt;Path&gt;" class="cls-29" d="M274.81,55.93c3.09,1.54,7.43-9.15,5.78-10.1C279.19,45,270.7,53.88,274.81,55.93Z"/></g><g id="_Group_3" data-name="&lt;Group&gt;"><path id="_Path_23" data-name="&lt;Path&gt;" class="cls-29" d="M280.93,80.47c3.18,1.19,6.46-9.94,4.82-10.3C283.88,69.75,276.52,78.81,280.93,80.47Z"/></g><g id="_Group_4" data-name="&lt;Group&gt;"><path id="_Path_24" data-name="&lt;Path&gt;" class="cls-29" d="M315.43,63.45c3.54,1.61,7.21-8.83,5.32-9.83C319.15,52.77,310.72,61.31,315.43,63.45Z"/></g><g id="_Group_5" data-name="&lt;Group&gt;"><path id="_Path_25" data-name="&lt;Path&gt;" class="cls-30" d="M353.79,99.09c3.08,2.71,9.14-7.26,7.43-8.74C359.78,89.1,350.28,96,353.79,99.09Z"/></g><g id="_Group_6" data-name="&lt;Group&gt;"><path id="_Path_26" data-name="&lt;Path&gt;" class="cls-29" d="M325.61,90.37c3.39,2.31,8.31-8.68,6.67-9.59S322.25,88.08,325.61,90.37Z"/></g><g id="_Group_7" data-name="&lt;Group&gt;"><path id="_Path_27" data-name="&lt;Path&gt;" class="cls-30" d="M307.69,135.4c2.2,3.25,11-4.63,9.9-6.49C316.66,127.34,304.78,131.09,307.69,135.4Z"/></g><g id="_Group_8" data-name="&lt;Group&gt;"><path id="_Path_28" data-name="&lt;Path&gt;" class="cls-29" d="M294.26,114.18c3.51,1.75,7.48-9,5.61-10C298.29,103.24,289.6,111.86,294.26,114.18Z"/></g><g id="_Group_9" data-name="&lt;Group&gt;"><path id="_Path_29" data-name="&lt;Path&gt;" class="cls-29" d="M261,103.37c3.83.82,4.17-10.65,2.69-10.92C262.45,92.23,257,102.52,261,103.37Z"/></g></g><g id="_Group_10" data-name="&lt;Group&gt;"><path id="_Path_30" data-name="&lt;Path&gt;" class="cls-31" d="M241.47,65.07c-15-6.59-34.4-4.2-48.78,2.49C165.39,80.27,134.5,115.1,147,147.47c13.57,35.16,87.9,58,114.57,29.81,14.6-15.43,16.36-38.71,12.72-58.66S261.37,73.8,241.47,65.07Z"/><path id="_Path_31" data-name="&lt;Path&gt;" class="cls-32" d="M224.81,71c-38.67-4.21-76.07,36.83-68.67,69.09,8.54,37.23,78,46.68,95.06,31.77C278,148.47,257.86,74.6,224.81,71Z"/><path class="cls-33" d="M250.72,123.59c.1-6.83-25-12-25-12s20.09-3,20.43-8.22c.36-5.49-32.55-7.64-32.55-7.64s19.62-5.28,20.22-10.25-36.64-2.57-36.64-2.57S217,76.05,214.48,72.2c-1.92-2.9-22.37-.71-37.57,13.82-3.35,3.2-7.68,7.47-8.53,8.56-4.12,5.29-16.16,27-11.14,30,3.47,2.12,9.92-4.89,13.6-9.45-1.77,10.8-3.69,26.68,0,27.88,5.66,1.83,13.63-19.58,13.63-19.58s.58,34.2,5.18,34.54c6,.44,9.2-18.22,9.2-18.22s9.13,28.21,15.3,26.8c4.1-.93,4.08-8.18,3.22-13.93,9.83,10.09,25.91,12.43,29.21,8.26,4.28-5.42.31-16.26-7.22-30C243.87,131,250.66,127.17,250.72,123.59Z"/><path id="_Path_32" data-name="&lt;Path&gt;" class="cls-34" d="M187.66,97.31c17.57-13.72,51.89,52.18,49,55.15C233.2,156,170.29,110.88,187.66,97.31Z"/><path id="_Path_33" data-name="&lt;Path&gt;" class="cls-35" d="M203.53,104.7s12,12.81,6.16,17.94-18.87-9.24-16.86-10.32c.85-.46,10.15,9,13.33,5.94C208.39,116.14,201.06,105.5,203.53,104.7Z"/><path id="_Path_34" data-name="&lt;Path&gt;" class="cls-36" d="M171.56,77.42s-.18-14.07,15.11-35.37c0,0,8.85,23.49-4.56,35.87,0,0,11.83-2.37,21.49,8.78,0,0-11.49,10.55-26.1-.42,0,0,4.71,24-6.89,32.85,0,0-6.29-19.51-2.38-28.1,0,0-14.33,18.7-36.94,7.77,0,0,10.42-14.88,37.81-17.83,0,0-11.32-7-21.75-10.77l4.9-9.61S165.67,67.19,171.56,77.42Z"/></g><path class="cls-37" d="M416.94,141.42a41,41,0,0,0-15.7-28.83,49.24,49.24,0,0,0-33.08-10.42C343.7,103.78,321,125.9,324.09,151a39.43,39.43,0,0,0,10,21.45c13.42,15.13,66.37,11.92,75.46-2A45.55,45.55,0,0,0,416.94,141.42Z"/><path class="cls-38" d="M398.13,119.65c-2.6-10.09-22.45-15.5-37.58-11.27-14.8,4.14-29.31,18.67-26.15,29.09,2.91,9.58,20,13.22,32.25,11.24C383.9,145.92,400.91,130.41,398.13,119.65Zm-29.85,8.5c-5.72,2.08-13-.17-13.5-3-.45-2.64,4.89-5.75,8.33-7,4.79-1.76,11.89-2.16,13.1.55C377.35,121.21,373.2,126.36,368.28,128.15Z"/><path class="cls-13" d="M364.48,121.06c2.08-.68,4.14-.1,4.59,1.29s-.86,3.07-2.95,3.75-4.13.1-4.59-1.29S362.4,121.74,364.48,121.06Z"/><path class="cls-18" d="M335,131c-3.56-1.25,5-13.57,7.66-11.65C345.54,121.51,338.47,132.25,335,131Z"/><path class="cls-18" d="M350,115.48a2.57,2.57,0,1,1-3-2.37A2.69,2.69,0,0,1,350,115.48Z"/></g></g></svg>